<svg version="1.1" id="Layer_1" xmlns="http://www.w3.org/2000/svg" xmlns:xlink="http://www.w3.org/1999/xlink" x="0px" y="0px"
	 width="100%" viewBox="0 0 534 540" enable-background="new 0 0 534 540" xml:space="preserve">
<path fill="#F7935F" opacity="1.000000" stroke="none"
	d="
M270.051086,506.103821
	C268.247345,508.135345 266.414124,507.910522 264.146942,506.638336
	C252.200195,499.934570 240.177505,493.366150 228.015549,486.065796
	C227.060730,483.562408 226.354279,481.702637 225.469864,479.931732
	C212.798462,454.559448 200.092621,429.204346 187.434387,403.825531
	C186.482376,401.916840 185.828522,399.859467 185.493973,397.927124
	C195.622726,398.654999 205.291412,399.360443 214.965027,399.989960
	C225.794327,400.694672 236.625748,401.372589 247.460495,401.987061
	C265.714661,403.022339 283.968628,404.069977 302.229614,404.972565
	C313.124359,405.511047 324.032257,405.782928 334.765503,406.454773
	C314.921021,436.547913 295.223846,466.346863 275.601166,496.194824
	C273.526733,499.350281 271.890564,502.793884 270.051086,506.103821
z"/>
<path fill="#F36F66" opacity="1.000000" stroke="none"
	d="
M473.072235,387.071350
	C470.865356,393.258453 464.775452,394.930420 459.993011,397.926849
	C452.091431,402.877533 443.823669,407.243805 434.953003,411.959229
	C419.677124,411.043884 405.165314,409.910980 390.637848,409.040344
	C376.594604,408.198792 362.528839,407.731323 348.487061,406.869995
	C344.604248,406.631836 340.771698,405.575104 337.068115,404.578339
	C347.463593,389.022736 357.804016,373.846802 367.925110,358.525970
	C379.734985,340.648743 391.328033,322.628357 403.066376,304.703705
	C408.290436,296.726501 413.639801,288.831421 419.186096,281.138245
	C420.384338,283.129028 421.375641,284.857208 422.266266,286.635712
	C438.183533,318.421326 454.081665,350.216461 470.014679,381.994141
	C470.897491,383.754944 472.046906,385.382019 473.072235,387.071350
z"/>
<path fill="#FECA6A" opacity="1.000000" stroke="none"
	d="
M61.991306,390.132019
	C61.660854,388.796112 61.048767,387.461365 61.043320,386.124115
	C60.986031,372.064392 61.025684,358.004272 61.427258,343.385651
	C62.494366,342.115417 63.298500,341.487030 63.832901,340.680054
	C79.997528,316.270111 96.117805,291.830811 112.323906,267.448486
	C113.251663,266.052673 114.846008,265.099884 116.451973,264.121399
	C117.205719,265.682953 117.464272,267.149353 118.095772,268.432190
	C126.307793,285.113953 134.496414,301.808014 142.842377,318.422913
	C155.036285,342.698059 167.342697,366.916718 179.635406,391.142090
	C180.650787,393.143036 181.927673,395.011292 182.639557,396.952942
	C179.064163,396.650269 175.939011,396.203064 172.799271,396.044128
	C158.214706,395.306030 143.624649,394.676422 129.039597,393.947571
	C122.744316,393.632935 116.458244,393.138245 110.164658,392.784668
	C94.107872,391.882660 78.049217,391.014008 61.991306,390.132019
z"/>
<path fill="#D74EA0" opacity="1.000000" stroke="none"
	d="
M472.101959,150.955093
	C472.401367,154.651459 472.674011,158.350266 473.010620,162.043243
	C473.201202,164.134003 473.496735,166.215195 473.568237,169.063492
	C473.282990,178.520004 473.174500,187.213730 473.049500,196.255524
	C473.015778,197.067825 472.998535,197.532059 472.691681,198.166290
	C462.814178,212.744522 453.197083,227.133423 443.647217,241.566818
	C435.379608,254.062286 427.188324,266.608215 418.635681,278.972473
	C416.556885,274.979980 414.865265,271.118286 413.044769,267.318329
	C401.085754,242.355576 389.434753,217.237274 377.001587,192.512512
	C368.902496,176.406586 359.652893,160.879227 351.230347,144.824280
	C353.009338,144.378433 354.489258,143.976425 355.942139,144.057724
	C373.156586,145.021088 390.367096,146.053772 407.578308,147.074600
	C413.536346,147.427979 419.493073,147.803223 425.450867,148.160934
	C441.001099,149.094559 456.551575,150.023987 472.101959,150.955093
z"/>
<path fill="#8CCFF2" opacity="1.000000" stroke="none"
	d="
M62.566551,154.151474
	C63.658165,148.099762 69.052116,146.554916 73.377739,143.990112
	C81.936111,138.915588 90.592896,134.007050 100.006790,128.992859
	C107.245239,129.319519 113.686249,129.676941 120.126427,130.048752
	C126.070351,130.391907 132.015152,130.722870 137.956451,131.107376
	C157.916870,132.399200 177.875870,133.712524 197.809814,135.361786
	C197.441040,136.066772 197.033447,136.385147 196.763840,136.794418
	C174.476364,170.628418 152.144470,204.433380 129.966736,238.339203
	C125.297760,245.477234 121.197571,252.987305 116.487320,260.236328
	C115.015236,258.344025 113.736290,256.618805 112.789993,254.727203
	C96.024780,221.213989 79.300034,187.680557 62.566551,154.151474
z"/>
<path fill="#4F89C4" opacity="1.000000" stroke="none"
	d="
M265.964020,33.149979
	C271.237305,35.528778 276.686218,37.587135 281.744019,40.359085
	C289.990875,44.878769 297.982513,49.864204 306.427826,55.258400
	C307.664398,57.824448 308.492554,59.816395 309.454956,61.741268
	C322.293213,87.420105 335.161652,113.083893 347.977600,138.773865
	C348.848297,140.519150 349.360016,142.443527 349.638489,144.174896
	C339.390808,142.710373 329.574402,141.028610 319.687531,140.088089
	C308.691925,139.042099 297.635529,138.607376 286.599518,138.020767
	C266.807770,136.968750 247.012131,135.989273 227.216812,135.005798
	C218.460342,134.570740 209.700684,134.199982 201.010757,133.461990
	C201.982452,131.541290 202.799988,129.901917 203.802063,128.384415
	C221.675766,101.317543 239.612915,74.292419 257.420593,47.182251
	C260.216034,42.926548 262.445740,38.299278 264.937012,33.843811
	C264.937012,33.843811 264.986908,33.959473 265.129761,33.861801
	C265.573364,33.638535 265.803833,33.433815 265.964020,33.149979
z"/>
<path fill="#FDB446" opacity="1.000000" stroke="none"
	d="
M62.144714,390.434814
	C78.049217,391.014008 94.107872,391.882660 110.164658,392.784668
	C116.458244,393.138245 122.744316,393.632935 129.039597,393.947571
	C143.624649,394.676422 158.214706,395.306030 172.799271,396.044128
	C175.939011,396.203064 179.064163,396.650269 182.938156,396.981506
	C184.132202,397.289276 184.584137,397.580231 185.036072,397.871185
	C185.828522,399.859467 186.482376,401.916840 187.434387,403.825531
	C200.092621,429.204346 212.798462,454.559448 225.469864,479.931732
	C226.354279,481.702637 227.060730,483.562408 227.865967,485.743164
	C220.121872,481.778137 212.327164,477.511383 204.609406,473.109741
	C191.796219,465.801971 179.037399,458.398956 166.246719,451.051636
	C150.067535,441.757874 133.863876,432.506592 117.699867,423.186523
	C103.788620,415.165375 89.907326,407.092041 76.035805,399.002289
	C71.419876,396.310333 66.875313,393.496033 62.144714,390.434814
z"/>
<path fill="#69B7E5" opacity="1.000000" stroke="none"
	d="
M264.572205,33.914310
	C262.445740,38.299278 260.216034,42.926548 257.420593,47.182251
	C239.612915,74.292419 221.675766,101.317543 203.802063,128.384415
	C202.799988,129.901917 201.982452,131.541290 200.658493,133.534393
	C199.437103,134.302444 198.636261,134.660049 197.835419,135.017639
	C177.875870,133.712524 157.916870,132.399200 137.956451,131.107376
	C132.015152,130.722870 126.070351,130.391907 120.126427,130.048752
	C113.686249,129.676941 107.245239,129.319519 100.364014,128.931274
	C112.579651,121.459908 125.212296,113.972679 137.897079,106.574867
	C162.718948,92.098671 187.523056,77.590996 212.424942,63.253429
	C229.607101,53.360600 246.941177,43.731674 264.572205,33.914310
z"/>
<path fill="#F15845" opacity="1.000000" stroke="none"
	d="
M336.916077,404.893921
	C340.771698,405.575104 344.604248,406.631836 348.487061,406.869995
	C362.528839,407.731323 376.594604,408.198792 390.637848,409.040344
	C405.165314,409.910980 419.677124,411.043884 434.626953,412.103119
	C416.251831,423.032349 397.440979,433.912720 378.640228,444.810608
	C353.968048,459.111816 329.362946,473.530273 304.609406,487.689178
	C293.482849,494.053528 282.066437,499.911133 270.416321,506.051270
	C271.890564,502.793884 273.526733,499.350281 275.601166,496.194824
	C295.223846,466.346863 314.921021,436.547913 335.046326,406.343445
	C335.969330,405.599304 336.442719,405.246643 336.916077,404.893921
z"/>
<path fill="#E8C06A" opacity="1.000000" stroke="none"
	d="
M62.322121,154.439850
	C79.300034,187.680557 96.024780,221.213989 112.789993,254.727203
	C113.736290,256.618805 115.015236,258.344025 116.362869,260.528381
	C116.434296,261.920349 116.282211,262.930634 116.130127,263.940918
	C114.846008,265.099884 113.251663,266.052673 112.323906,267.448486
	C96.117805,291.830811 79.997528,316.270111 63.832901,340.680054
	C63.298500,341.487030 62.494366,342.115417 61.501312,342.923401
	C61.124443,338.036591 61.102604,333.052521 60.992321,328.070435
	C60.681061,314.009399 60.013584,299.947906 60.067257,285.888824
	C60.176804,257.195496 60.674088,228.503677 60.992924,199.811035
	C61.044651,195.156021 60.892559,190.496948 61.022141,185.844986
	C61.311108,175.470978 61.718536,165.100266 62.322121,154.439850
z"/>
<path fill="#B53694" opacity="1.000000" stroke="none"
	d="
M350.038696,144.284607
	C349.360016,142.443527 348.848297,140.519150 347.977600,138.773865
	C335.161652,113.083893 322.293213,87.420105 309.454956,61.741268
	C308.492554,59.816395 307.664398,57.824448 306.656494,55.504898
	C324.706940,65.601654 342.860474,76.082123 361.046875,86.505249
	C377.147797,95.733154 393.323364,104.831284 409.397186,114.105919
	C430.221405,126.121552 450.977356,138.255447 471.932312,150.646759
	C456.551575,150.023987 441.001099,149.094559 425.450867,148.160934
	C419.493073,147.803223 413.536346,147.427979 407.578308,147.074600
	C390.367096,146.053772 373.156586,145.021088 355.942139,144.057724
	C354.489258,143.976425 353.009338,144.378433 351.028748,144.756317
	C350.242706,144.813461 350.083771,144.589417 350.038696,144.284607
z"/>
<path fill="#D22C81" opacity="1.000000" stroke="none"
	d="
M418.963318,279.131866
	C427.188324,266.608215 435.379608,254.062286 443.647217,241.566818
	C453.197083,227.133423 462.814178,212.744522 472.697266,198.635468
	C472.998322,259.173920 472.996094,319.413208 473.043945,379.652466
	C473.045624,381.760406 473.546295,383.867950 473.814392,385.975677
	C473.732452,386.282959 473.650482,386.590271 473.320374,386.984436
	C472.046906,385.382019 470.897491,383.754944 470.014679,381.994141
	C454.081665,350.216461 438.183533,318.421326 422.266266,286.635712
	C421.375641,284.857208 420.384338,283.129028 419.210754,280.844788
	C418.975555,279.918732 418.969421,279.525299 418.963318,279.131866
z"/>
<path fill="#E25F92" opacity="1.000000" stroke="none"
	d="
M473.884888,385.512085
	C473.546295,383.867950 473.045624,381.760406 473.043945,379.652466
	C472.996094,319.413208 472.998322,259.173920 472.986877,198.465454
	C472.998535,197.532059 473.015778,197.067825 473.238495,196.271896
	C473.444000,195.940186 473.824005,195.958984 473.824036,195.958984
	C473.882050,206.100067 473.989227,216.241135 473.989868,226.382217
	C473.993286,279.270966 473.969604,332.159729 473.884888,385.512085
z"/>
<path fill="#E48CBB" opacity="1.000000" stroke="none"
	d="
M473.899475,195.498825
	C473.824005,195.958984 473.444000,195.940186 473.255005,195.923828
	C473.174500,187.213730 473.282990,178.520004 473.606110,169.492065
	C473.872162,177.784790 473.923584,186.411728 473.899475,195.498825
z"/>
<path fill="#69B7E5" opacity="1.000000" stroke="none"
	d="
M265.698792,33.142281
	C265.803833,33.433815 265.573364,33.638535 265.071411,33.885574
	C265.058014,33.716202 265.245789,33.425388 265.698792,33.142281
z"/>
</svg>